PathFileType	4	(X/Y/Z)	 s11c0201.trc
DataRate	CameraRate	NumFrames	NumMarkers	Units	OrigDataRate	OrigDataStartFrame	OrigNumFrames
200	200	5	48	mm	200	501	2000
Frame#	Time	racr			lacr			c7			jug			rlel			rdr			llel			ldr			s2			lic			ric			lasi			rasi			rpsi			lpsi			rgt			lgt			rth1			rth2			rth3			rth4			rlfc			rmfc			rsh1			rsh2			rsh3			rsh4			rlmal			rcal			rtoe			rmt5			lth1			lth2			lth4			lth3			llfc			lmfc			llmal			lcal			lmt5			lsh1			lsh2			lsh3			lsh4			ltoe			SBIKE			LBIKE			RBIKE			
		X1	Y1	Z1	X2	Y2	Z2	X3	Y3	Z3	X4	Y4	Z4	X5	Y5	Z5	X6	Y6	Z6	X7	Y7	Z7	X8	Y8	Z8	X9	Y9	Z9	X10	Y10	Z10	X11	Y11	Z11	X12	Y12	Z12	X13	Y13	Z13	X14	Y14	Z14	X15	Y15	Z15	X16	Y16	Z16	X17	Y17	Z17	X18	Y18	Z18	X19	Y19	Z19	X20	Y20	Z20	X21	Y21	Z21	X22	Y22	Z22	X23	Y23	Z23	X24	Y24	Z24	X25	Y25	Z25	X26	Y26	Z26	X27	Y27	Z27	X28	Y28	Z28	X29	Y29	Z29	X30	Y30	Z30	X31	Y31	Z31	X32	Y32	Z32	X33	Y33	Z33	X34	Y34	Z34	X35	Y35	Z35	X36	Y36	Z36	X37	Y37	Z37	X38	Y38	Z38	X39	Y39	Z39	X40	Y40	Z40	X41	Y41	Z41	X42	Y42	Z42	X43	Y43	Z43	X44	Y44	Z44	X45	Y45	Z45	X46	Y46	Z46	X47	Y47	Z47	X48	Y48	Z48	
501	2.5050	515.089323	1364.312470	-64.169434	530.364153	1319.175620	-383.584534	469.526781	1451.630503	-239.064494	477.232946	1269.886175	-224.721976	531.715017	1113.815934	71.030239	756.243141	973.449341	-16.942471	485.432867	1062.192044	-565.081528	768.260737	959.284782	-486.135609	-98.350264	1215.871449	-278.967182	88.217685	1203.292180	-418.331889	99.632758	1225.814966	-50.069678	148.952467	1152.153931	-419.199508	133.434868	1155.790762	-82.266558	-51.635718	1287.262539	-217.102160	-53.702403	1279.469746	-311.589182	60.156403	1069.459738	-50.107549	46.404839	1101.302434	-471.881122	167.234970	937.302046	-92.714013	222.119451	896.809784	-59.218570	254.699010	816.954427	-75.875926	250.180614	919.283178	-68.314413	317.539034	730.193048	-94.537386	300.455492	704.984831	-218.496623	290.985913	573.912744	-70.906275	300.232125	487.592953	-85.786405	266.904478	406.465313	-83.129521	322.045397	486.573297	-120.154435	237.756822	267.389801	-88.819970	175.844150	239.574579	-134.988073	462.869078	242.576499	-131.546271	397.937776	205.688555	-61.653725	179.377262	1037.793158	-481.238347	263.896096	1022.552955	-476.982442	280.236807	1053.789354	-465.195881	332.169468	963.866701	-477.026547	443.915683	886.226778	-450.416405	456.789567	867.371353	-344.128781	127.622067	605.871563	-413.892174	62.249339	610.083606	-376.322621	175.770140	435.892329	-440.881091	355.480193	802.173436	-464.480464	311.844243	730.619994	-444.749085	235.626749	686.541989	-437.689058	335.738035	711.542742	-421.371451	259.165596	385.473633	-374.621445	-204.710260	958.245124	-263.273346	1.395922	82.413218	-461.155738	-15.285224	81.026407	-62.661956	
502	2.5100	517.353020	1363.553027	-65.791250	528.605009	1322.119176	-388.209088	469.940165	1453.236002	-240.997447	478.500657	1271.976410	-228.801054	531.680315	1113.549796	71.487942	756.578686	973.475749	-17.187143	483.701195	1061.438783	-563.834357	768.439468	959.263210	-487.007877	-97.912396	1216.458917	-274.746168	89.728261	1206.906974	-420.487237	102.534823	1225.298100	-48.820103	148.153563	1155.673376	-417.438275	135.229547	1155.456263	-81.333254	-51.057904	1287.663798	-214.097728	-53.486113	1280.274292	-307.754441	59.772294	1067.692880	-49.204032	46.399171	1104.955154	-471.208673	163.639393	932.305339	-91.502786	217.893723	891.744435	-58.034078	248.825886	811.237333	-74.923839	246.475338	913.528782	-67.302639	309.915553	724.092252	-93.947526	291.858693	698.414828	-217.905938	282.759007	568.186683	-70.219971	292.078730	481.776095	-85.073475	258.585570	400.682656	-82.523618	314.276193	480.681468	-119.172035	230.600730	261.347165	-88.722248	168.622707	234.068703	-135.053989	455.820921	234.558309	-131.905089	390.468563	198.281072	-61.823209	180.644057	1043.118667	-481.023763	265.249418	1029.300804	-476.527123	281.041113	1060.728829	-464.486340	334.517174	971.734901	-476.917352	448.425775	896.242072	-450.550414	460.210597	879.179260	-339.962955	134.005004	613.552026	-413.634237	68.631153	617.008799	-376.254849	183.421541	443.534102	-440.404025	361.146932	811.802015	-464.715613	318.062053	740.013374	-444.819977	242.183535	695.120326	-437.344360	342.112378	721.102006	-421.580758	267.044983	393.236029	-373.628488	-204.667576	958.317826	-263.178862	1.403364	82.426502	-461.148546	-15.269595	81.021289	-62.647503	
503	2.5150	519.589143	1362.618477	-67.515457	526.731601	1325.147474	-392.939489	470.303495	1454.792609	-242.772180	479.708309	1273.948970	-232.947262	531.695359	1113.417919	71.715541	756.987996	973.539960	-17.658706	482.294656	1060.995980	-562.982002	768.599686	959.308099	-487.558952	-97.425902	1217.133422	-272.103681	91.770073	1210.696411	-423.096756	104.570317	1224.716826	-47.891962	147.235761	1158.928014	-415.553514	135.493658	1154.839985	-81.780796	-50.207129	1287.972867	-210.516325	-53.338795	1281.336285	-305.091924	59.280420	1065.731750	-48.183547	46.456491	1108.631689	-470.752955	159.993487	927.864273	-90.025849	213.785617	886.930087	-56.641371	243.120430	805.906418	-73.724706	242.694011	908.311337	-65.977855	302.750367	718.456757	-93.222767	285.825987	692.107561	-215.595705	274.602062	562.761861	-69.427600	283.826352	476.438809	-84.152422	250.175437	395.422787	-81.920091	306.317592	475.269596	-117.986880	223.171578	255.820651	-88.765620	161.146308	229.118830	-135.131209	448.175940	227.280513	-132.061843	382.657119	191.295646	-62.050888	181.745907	1048.248288	-480.740386	266.524975	1035.738888	-476.014040	281.763191	1067.448046	-463.773693	336.589992	979.471379	-477.004491	452.696192	905.862307	-450.983247	462.781269	891.921730	-333.555890	140.439311	620.746776	-413.505880	74.835755	623.161694	-376.158528	191.585590	450.856991	-440.087021	366.595548	821.306457	-464.904059	324.159247	749.091444	-445.098848	248.686877	703.767587	-437.477876	348.413347	730.456153	-421.766980	275.978954	401.619286	-373.305644	-203.909151	957.952180	-263.398374	1.407576	82.481117	-461.119514	-15.312424	81.030610	-62.550036	
504	2.5200	521.737575	1361.683007	-69.301294	524.712478	1328.178458	-397.777099	470.901569	1456.238695	-244.593192	480.968904	1275.608318	-237.040138	531.748780	1113.370060	71.913083	757.464147	973.705128	-18.367161	481.054207	1060.693059	-562.112470	768.732401	959.487646	-487.802862	-96.725849	1217.741003	-268.611113	94.213960	1214.604926	-426.041369	107.799536	1223.840869	-46.806630	146.252895	1161.947366	-413.581245	138.022187	1154.206732	-80.685345	-49.288366	1288.231730	-206.992336	-53.257751	1282.149754	-301.784077	58.730063	1063.676424	-47.017598	46.873822	1112.782517	-470.857038	156.413646	923.788695	-88.225865	209.692452	882.404775	-54.978140	237.633857	800.858826	-72.242256	238.993236	903.438088	-64.425358	296.026336	713.333943	-92.402287	278.394101	687.292280	-214.916024	266.674715	557.841520	-68.456447	275.754152	471.527493	-83.227010	241.777629	390.591960	-81.398696	298.616284	470.314316	-116.725351	215.453657	251.076591	-88.837621	153.337491	225.046500	-135.297452	440.618777	219.628539	-132.461094	374.446174	184.683352	-62.285229	182.816315	1053.188847	-480.354127	267.690748	1042.040263	-475.495128	282.408897	1073.972031	-463.128059	338.694720	987.027157	-477.049590	456.728738	915.532506	-450.774522	465.136773	904.495588	-327.104310	146.943185	627.314136	-413.403424	81.233121	628.610287	-376.193042	199.997280	457.652721	-439.865316	372.009117	830.885749	-465.460160	330.067860	758.028179	-445.374608	255.040812	711.960219	-437.662668	354.470261	739.567632	-422.199922	284.930810	409.598334	-373.011088	-203.876231	958.013024	-263.241157	1.411315	82.508711	-461.123133	-15.242146	81.055407	-62.616235	
505	2.5250	523.746658	1360.581691	-71.199138	522.579901	1331.272509	-402.627047	471.438635	1457.255023	-246.851204	482.178850	1277.004444	-241.176160	531.849434	1113.414508	72.018328	758.029981	974.025553	-19.411571	479.949303	1060.468929	-561.249986	768.886422	959.725890	-487.579864	-95.861438	1217.503066	-265.519928	96.930763	1218.576953	-429.201998	111.094404	1222.762403	-46.105063	145.307990	1164.629137	-411.602610	140.901911	1153.455440	-79.854745	-47.038902	1287.441375	-204.331763	-52.809714	1282.584864	-298.417773	58.153732	1061.528822	-45.686190	46.798340	1116.134591	-470.362086	152.828871	919.945176	-85.918076	205.759002	878.214414	-53.053757	232.351010	796.164866	-70.568512	235.379808	898.808808	-62.710391	289.882855	708.603416	-91.445580	271.630223	683.098979	-213.821915	259.178858	553.572828	-67.465979	267.902446	467.350549	-82.499288	233.579972	386.515945	-81.105547	291.046897	466.041637	-115.782645	207.577179	246.952589	-88.966447	145.373451	221.943618	-135.805207	432.383532	213.449887	-132.521492	365.953984	178.757308	-62.515805	183.802974	1057.985508	-479.947544	268.748930	1048.127510	-475.031099	282.991128	1080.250280	-462.534408	340.615436	994.275710	-477.182558	460.493789	925.204640	-452.125121	467.912298	915.797661	-322.804937	153.571994	633.219350	-413.433990	87.612247	633.461660	-376.251787	208.586245	463.919008	-439.648475	376.942557	840.120915	-465.801767	335.813793	766.684830	-445.690975	261.291129	719.835324	-437.804392	360.434226	748.532881	-422.686333	294.267850	416.921467	-372.618975	-203.812082	958.105066	-263.108893	1.473122	82.477801	-461.201020	-15.249586	81.053291	-62.624223	
